<svg xmlns="http://www.w3.org/2000/svg" xml:space="preserve" width="2000" height="143" data-id="lg_Iv5gRLYZuSw1fOPpQb" data-version="1" viewBox="0 0 2000 143"><g data-padding="20"><g transform="translate(10 2.554)scale(.96429)"><rect width="560" height="84.75" x="346.167" y="-370.84" fill="none" rx="0" ry="0" transform="translate(400.5 370.96)"/><path d="M752.777 65.555v-52.5h11.77l5.25 37.58h.15l5.25-37.58h11.78v52.5h-7.8v-39.75h-.15l-6 39.75h-6.9l-6-39.75h-.15v39.75Zm40.35 0v-52.5h8.25v52.5Zm14.4 0v-52.5h12.22q6.38 0 9.3 2.96 2.93 2.97 2.93 9.12v3.22q0 8.18-5.4 10.35v.15q3 .9 4.23 3.68 1.24 2.77 1.24 7.42v9.23q0 2.25.15 3.63.15 1.39.75 2.74h-8.4q-.45-1.27-.6-2.4-.15-1.12-.15-4.05v-9.6q0-3.6-1.16-5.02-1.16-1.43-4.01-1.43h-2.85v22.5Zm8.25-30h3q2.47 0 3.71-1.27 1.24-1.28 1.24-4.28v-4.05q0-2.85-1.02-4.12-1.01-1.28-3.18-1.28h-3.75Zm21.97 30v-52.5h12.23q6.37 0 9.3 2.96 2.92 2.97 2.92 9.12v3.22q0 8.18-5.4 10.35v.15q3 .9 4.24 3.68 1.24 2.77 1.24 7.42v9.23q0 2.25.15 3.63.15 1.39.75 2.74h-8.4q-.45-1.27-.6-2.4-.15-1.12-.15-4.05v-9.6q0-3.6-1.17-5.02-1.16-1.43-4.01-1.43h-2.85v22.5Zm8.25-30h3q2.48 0 3.71-1.27 1.24-1.28 1.24-4.28v-4.05q0-2.85-1.01-4.12-1.01-1.28-3.19-1.28h-3.75Zm33.9 30.75q-6.07 0-9.3-3.45-3.22-3.45-3.22-9.75v-27.6q0-6.3 3.22-9.75 3.23-3.45 9.3-3.45 6.08 0 9.3 3.45 3.23 3.45 3.23 9.75v27.6q0 6.3-3.23 9.75-3.22 3.45-9.3 3.45m0-7.5q4.28 0 4.28-5.17v-28.65q0-5.18-4.28-5.18-4.27 0-4.27 5.18v28.65q0 5.17 4.27 5.17m18.08 6.75v-52.5h12.22q6.38 0 9.3 2.96 2.93 2.97 2.93 9.12v3.22q0 8.18-5.4 10.35v.15q3 .9 4.23 3.68 1.24 2.77 1.24 7.42v9.23q0 2.25.15 3.63.15 1.39.75 2.74h-8.4q-.45-1.27-.6-2.4-.15-1.12-.15-4.05v-9.6q0-3.6-1.16-5.02-1.16-1.43-4.01-1.43h-2.85v22.5Zm8.25-30h3q2.47 0 3.71-1.27 1.24-1.28 1.24-4.28v-4.05q0-2.85-1.02-4.12-1.01-1.28-3.18-1.28h-3.75Zm21.97 30v-52.5h11.78l5.25 37.58h.15l5.25-37.58h11.77v52.5h-7.8v-39.75h-.15l-6 39.75h-6.9l-6-39.75h-.15v39.75Zm38.17 0 8.55-52.5h11.17l8.55 52.5h-8.25l-1.5-10.42v.15h-9.37l-1.5 10.27Zm10.12-17.4h7.43l-3.68-25.95h-.15Zm22.14 17.4v-52.5h10.35l8.02 31.43h.15v-31.43h7.35v52.5h-8.47l-9.9-38.32h-.15v38.32Zm44.02 0v-52.5h12.45q6.38 0 9.3 2.96 2.93 2.97 2.93 9.12v2.1q0 4.05-1.32 6.6-1.31 2.55-4.01 3.67v.15q6.15 2.1 6.15 10.95v4.5q0 6.08-3.19 9.26-3.18 3.19-9.33 3.19Zm8.25-31.12h3.23q2.47 0 3.71-1.28 1.24-1.27 1.24-4.27v-2.93q0-2.85-1.02-4.12-1.01-1.28-3.18-1.28h-3.98Zm0 23.62h4.73q2.17 0 3.22-1.16t1.05-4.01v-4.58q0-3.6-1.24-4.99-1.23-1.38-4.08-1.38h-3.68Zm33.98 8.25q-6.08 0-9.3-3.45-3.23-3.45-3.23-9.75v-27.6q0-6.3 3.23-9.75 3.22-3.45 9.3-3.45 6.07 0 9.3 3.45 3.22 3.45 3.22 9.75v27.6q0 6.3-3.22 9.75-3.23 3.45-9.3 3.45m0-7.5q4.27 0 4.27-5.17v-28.65q0-5.18-4.27-5.18-4.28 0-4.28 5.18v28.65q0 5.17 4.28 5.17m30 7.5q-6.08 0-9.3-3.45-3.23-3.45-3.23-9.75v-27.6q0-6.3 3.23-9.75 3.22-3.45 9.3-3.45 6.07 0 9.3 3.45 3.22 3.45 3.22 9.75v27.6q0 6.3-3.22 9.75-3.23 3.45-9.3 3.45m0-7.5q4.27 0 4.27-5.17v-28.65q0-5.18-4.27-5.18-4.28 0-4.28 5.18v28.65q0 5.17 4.28 5.17m18.06 6.75v-52.5h8.25v22.13l10.5-22.13h8.25l-9.82 19.28 9.97 33.22h-8.62l-6.98-23.4-3.3 6.68v16.72Zm41.79.75q-6 0-9.08-3.41-3.07-3.41-3.07-9.79v-3h7.8v3.6q0 5.1 4.27 5.1 2.1 0 3.19-1.24 1.09-1.23 1.09-4.01 0-3.3-1.5-5.81t-5.55-6.04q-5.1-4.5-7.13-8.14-2.02-3.63-2.02-8.21 0-6.22 3.15-9.64 3.15-3.41 9.15-3.41 5.92 0 8.96 3.41 3.04 3.42 3.04 9.79v2.18h-7.8v-2.7q0-2.7-1.05-3.94t-3.08-1.24q-4.12 0-4.12 5.03 0 2.85 1.53 5.32 1.54 2.48 5.59 6 5.18 4.5 7.13 8.18 1.95 3.67 1.95 8.62 0 6.45-3.19 9.9t-9.26 3.45m23.62-.75v-45h-8.62v-7.5h25.5v7.5h-8.63v45Zm32.78.75q-6.08 0-9.3-3.45-3.23-3.45-3.23-9.75v-27.6q0-6.3 3.23-9.75 3.22-3.45 9.3-3.45 6.07 0 9.3 3.45 3.22 3.45 3.22 9.75v27.6q0 6.3-3.22 9.75-3.23 3.45-9.3 3.45m0-7.5q4.27 0 4.27-5.17v-28.65q0-5.18-4.27-5.18-4.28 0-4.28 5.18v28.65q0 5.17 4.28 5.17m18.07 6.75v-52.5h12.23q6.37 0 9.3 2.96 2.92 2.97 2.92 9.12v3.22q0 8.18-5.4 10.35v.15q3 .9 4.24 3.68 1.24 2.77 1.24 7.42v9.23q0 2.25.15 3.63.15 1.39.75 2.74h-8.4q-.45-1.27-.6-2.4-.15-1.12-.15-4.05v-9.6q0-3.6-1.17-5.02-1.16-1.43-4.01-1.43h-2.85v22.5Zm8.25-30h3q2.48 0 3.71-1.27 1.24-1.28 1.24-4.28v-4.05q0-2.85-1.01-4.12-1.01-1.28-3.19-1.28h-3.75Zm21.98 30v-52.5h22.5v7.5h-14.25v13.88h11.32v7.5h-11.32v16.12h14.25v7.5Z"/><rect width="560" height="84.75" x="346.167" y="286.09" fill="none" rx="0" ry="0" transform="matrix(1 0 0 -1 400.5 428.97)"/><path fill="#dadada" d="M752.777 77.445v52.5h11.77l5.25-37.58h.15l5.25 37.58h11.78v-52.5h-7.8v39.75h-.15l-6-39.75h-6.9l-6 39.75h-.15v-39.75Zm40.35 0v52.5h8.25v-52.5Zm14.4 0v52.5h12.22q6.38 0 9.3-2.97 2.93-2.96 2.93-9.11v-3.22q0-8.18-5.4-10.35v-.15q3-.9 4.23-3.68 1.24-2.77 1.24-7.42v-9.23q0-2.25.15-3.64.15-1.38.75-2.73h-8.4q-.45 1.27-.6 2.4-.15 1.12-.15 4.05v9.6q0 3.6-1.16 5.02-1.16 1.43-4.01 1.43h-2.85v-22.5Zm8.25 30h3q2.47 0 3.71 1.27 1.24 1.28 1.24 4.28v4.05q0 2.85-1.02 4.12-1.01 1.28-3.18 1.28h-3.75Zm21.97-30v52.5h12.23q6.37 0 9.3-2.97 2.92-2.96 2.92-9.11v-3.22q0-8.18-5.4-10.35v-.15q3-.9 4.24-3.68 1.24-2.77 1.24-7.42v-9.23q0-2.25.15-3.64.15-1.38.75-2.73h-8.4q-.45 1.27-.6 2.4-.15 1.12-.15 4.05v9.6q0 3.6-1.17 5.02-1.16 1.43-4.01 1.43h-2.85v-22.5Zm8.25 30h3q2.48 0 3.71 1.27 1.24 1.28 1.24 4.28v4.05q0 2.85-1.01 4.12-1.01 1.28-3.19 1.28h-3.75Zm33.9-30.75q-6.07 0-9.3 3.45-3.22 3.45-3.22 9.75v27.6q0 6.3 3.22 9.75 3.23 3.45 9.3 3.45 6.08 0 9.3-3.45 3.23-3.45 3.23-9.75v-27.6q0-6.3-3.23-9.75-3.22-3.45-9.3-3.45m0 7.5q4.28 0 4.28 5.17v28.65q0 5.18-4.28 5.18-4.27 0-4.27-5.18v-28.65q0-5.17 4.27-5.17m18.08-6.75v52.5h12.22q6.38 0 9.3-2.97 2.93-2.96 2.93-9.11v-3.22q0-8.18-5.4-10.35v-.15q3-.9 4.23-3.68 1.24-2.77 1.24-7.42v-9.23q0-2.25.15-3.64.15-1.38.75-2.73h-8.4q-.45 1.27-.6 2.4-.15 1.12-.15 4.05v9.6q0 3.6-1.16 5.02-1.16 1.43-4.01 1.43h-2.85v-22.5Zm8.25 30h3q2.47 0 3.71 1.27 1.24 1.28 1.24 4.28v4.05q0 2.85-1.02 4.12-1.01 1.28-3.18 1.28h-3.75Zm21.97-30v52.5h11.78l5.25-37.58h.15l5.25 37.58h11.77v-52.5h-7.8v39.75h-.15l-6-39.75h-6.9l-6 39.75h-.15v-39.75Zm38.17 0 8.55 52.5h11.17l8.55-52.5h-8.25l-1.5 10.42v-.15h-9.37l-1.5-10.27Zm10.12 17.4h7.43l-3.68 25.95h-.15Zm22.14-17.4v52.5h10.35l8.02-31.43h.15v31.43h7.35v-52.5h-8.47l-9.9 38.32h-.15v-38.32Zm44.02 0v52.5h12.45q6.38 0 9.3-2.97 2.93-2.96 2.93-9.11v-2.1q0-4.05-1.32-6.6-1.31-2.55-4.01-3.67v-.15q6.15-2.1 6.15-10.95v-4.5q0-6.08-3.19-9.27-3.18-3.18-9.33-3.18Zm8.25 31.12h3.23q2.47 0 3.71 1.28 1.24 1.27 1.24 4.27v2.93q0 2.85-1.02 4.12-1.01 1.28-3.18 1.28h-3.98Zm0-23.62h4.73q2.17 0 3.22 1.16t1.05 4.01v4.58q0 3.6-1.24 4.98-1.23 1.39-4.08 1.39h-3.68Zm33.98-8.25q-6.08 0-9.3 3.45-3.23 3.45-3.23 9.75v27.6q0 6.3 3.23 9.75 3.22 3.45 9.3 3.45 6.07 0 9.3-3.45 3.22-3.45 3.22-9.75v-27.6q0-6.3-3.22-9.75-3.23-3.45-9.3-3.45m0 7.5q4.27 0 4.27 5.17v28.65q0 5.18-4.27 5.18-4.28 0-4.28-5.18v-28.65q0-5.17 4.28-5.17m30-7.5q-6.08 0-9.3 3.45-3.23 3.45-3.23 9.75v27.6q0 6.3 3.23 9.75 3.22 3.45 9.3 3.45 6.07 0 9.3-3.45 3.22-3.45 3.22-9.75v-27.6q0-6.3-3.22-9.75-3.23-3.45-9.3-3.45m0 7.5q4.27 0 4.27 5.17v28.65q0 5.18-4.27 5.18-4.28 0-4.28-5.18v-28.65q0-5.17 4.28-5.17m18.06-6.75v52.5h8.25v-22.13l10.5 22.13h8.25l-9.82-19.28 9.97-33.22h-8.62l-6.98 23.4-3.3-6.68v-16.72Zm41.79-.75q-6 0-9.08 3.41-3.07 3.41-3.07 9.79v3h7.8v-3.6q0-5.1 4.27-5.1 2.1 0 3.19 1.23 1.09 1.24 1.09 4.02 0 3.3-1.5 5.81t-5.55 6.04q-5.1 4.5-7.13 8.13-2.02 3.64-2.02 8.22 0 6.22 3.15 9.63 3.15 3.42 9.15 3.42 5.92 0 8.96-3.42 3.04-3.41 3.04-9.78v-2.18h-7.8v2.7q0 2.7-1.05 3.94t-3.08 1.24q-4.12 0-4.12-5.03 0-2.85 1.53-5.32 1.54-2.48 5.59-6 5.18-4.5 7.13-8.18 1.95-3.67 1.95-8.62 0-6.45-3.19-9.9t-9.26-3.45m23.62.75v45h-8.62v7.5h25.5v-7.5h-8.63v-45Zm32.78-.75q-6.08 0-9.3 3.45-3.23 3.45-3.23 9.75v27.6q0 6.3 3.23 9.75 3.22 3.45 9.3 3.45 6.07 0 9.3-3.45 3.22-3.45 3.22-9.75v-27.6q0-6.3-3.22-9.75-3.23-3.45-9.3-3.45m0 7.5q4.27 0 4.27 5.17v28.65q0 5.18-4.27 5.18-4.28 0-4.28-5.18v-28.65q0-5.17 4.28-5.17m18.07-6.75v52.5h12.23q6.37 0 9.3-2.97 2.92-2.96 2.92-9.11v-3.22q0-8.18-5.4-10.35v-.15q3-.9 4.24-3.68 1.24-2.77 1.24-7.42v-9.23q0-2.25.15-3.64.15-1.38.75-2.73h-8.4q-.45 1.27-.6 2.4-.15 1.12-.15 4.05v9.6q0 3.6-1.17 5.02-1.16 1.43-4.01 1.43h-2.85v-22.5Zm8.25 30h3q2.48 0 3.71 1.27 1.24 1.28 1.24 4.28v4.05q0 2.85-1.01 4.12-1.01 1.28-3.19 1.28h-3.75Zm21.98-30v52.5h22.5v-7.5h-14.25v-13.88h11.32v-7.5h-11.32v-16.12h14.25v-7.5Z"/></g><path fill="transparent" stroke="transparent" d="M720 0h560v143H720z"/></g></svg>